<svg width="82" height="33" viewBox="0 0 82 33" fill="none" xmlns="http://www.w3.org/2000/svg">
<g clip-path="url(#clip0_159_691)">
<path d="M45.7022 8.14354L49.0078 2.41738C49.4552 1.64488 49.1913 0.663161 48.4156 0.215755C47.6495 -0.231651 46.6613 0.0322861 46.2172 0.808005L42.9952 6.38932C39.2936 4.32932 35.0384 3.14804 30.5 3.14804C25.9648 3.14804 21.7096 4.32932 18.0048 6.39254L14.7796 0.804786C14.3322 0.0355049 13.3537 -0.228433 12.578 0.215755C11.8119 0.659942 11.548 1.64166 11.989 2.41416L15.2978 8.14354C8.91506 12.83 4.75 20.3683 4.75 28.898H56.25C56.25 20.3683 52.0849 12.83 45.7022 8.14354ZM20.8438 19.2418C19.0638 19.2418 17.625 17.803 17.625 16.023C17.625 14.2431 19.0638 12.8043 20.8438 12.8043C22.6237 12.8043 24.0625 14.2431 24.0625 16.023C24.0625 17.803 22.6237 19.2418 20.8438 19.2418ZM40.1562 19.2418C38.3763 19.2418 36.9375 17.803 36.9375 16.023C36.9375 14.2431 38.3763 12.8043 40.1562 12.8043C41.9362 12.8043 43.375 14.2431 43.375 16.023C43.375 17.803 41.9362 19.2418 40.1562 19.2418Z" fill="#FEFEFE"/>
</g>
<defs>
<clipPath id="clip0_159_691">
<rect width="103" height="103" fill="white" transform="translate(-21)"/>
</clipPath>
</defs>
</svg>
