<svg width="94" height="44" viewBox="0 0 94 44" fill="none" xmlns="http://www.w3.org/2000/svg">
<path fill-rule="evenodd" clip-rule="evenodd" d="M1.64442 20.0303C1.64442 20.0303 34.4759 20.0303 39.729 20.0303C44.982 20.0303 48.7028 23.4228 48.9218 29.2231C48.9218 31.6306 48.9218 42.3557 48.9218 42.3557C48.9218 42.3557 48.8325 43.9152 47.034 43.9973C45.0707 44.0794 44.982 42.3557 44.982 42.3557C44.982 42.3557 44.982 33.6432 44.982 29.3873C44.982 26.2574 42.4103 23.9701 39.5648 23.9701C32.5747 23.9701 1.64442 23.9701 1.64442 23.9701C1.64442 23.9701 0.00284102 23.5597 0.00284102 22.0002C-0.0792378 20.2765 1.64442 20.0303 1.64442 20.0303Z" fill="#FEFEFE"/>
<path fill-rule="evenodd" clip-rule="evenodd" d="M92.2588 23.9698C92.2588 23.9698 59.4273 23.9698 54.1743 23.9698C48.9212 23.9698 45.2004 20.5774 44.9814 14.777C44.9814 12.3695 44.9814 1.64442 44.9814 1.64442C44.9814 1.64442 45.0707 0.0849198 46.8693 0.00284102C48.8326 -0.0792378 48.9212 1.64442 48.9212 1.64442C48.9212 1.64442 48.9212 10.3569 48.9212 14.6129C48.9212 17.7427 51.4929 20.0301 54.3384 20.0301C61.3286 20.0301 92.2588 20.0301 92.2588 20.0301C92.2588 20.0301 93.9004 20.4405 93.9004 22C93.9825 23.7236 92.2588 23.9698 92.2588 23.9698Z" fill="#FEFEFE"/>
</svg>
