<svg width="30" height="54" viewBox="0 0 30 54" fill="none" xmlns="http://www.w3.org/2000/svg">
<path fill-rule="evenodd" clip-rule="evenodd" d="M15.0962 3.65904C21.7358 3.65904 26.4146 9.33635 26.3465 14.9506C26.3062 18.2771 24.8717 22.5204 20.7692 24.4452C16.6667 26.37 13.141 30.0271 13.0769 36.764C13.0769 39.3306 13.0769 48.6979 13.0769 51.2002C13.0769 53.7025 16.9871 53.7025 16.9231 51.2002C16.9231 49.3396 16.9231 39.5812 16.9231 36.5715C16.9231 33.5621 17.6283 30.4763 21.5385 28.4873C25.4487 26.4983 30 22.2292 30 14.995C30 6.71346 23.2842 0 15 0C6.71577 0 0 6.71346 0 14.995C0 20.3117 2.76789 24.9819 6.94154 27.6446C9.33346 29.0006 11.4079 26.3046 9.42308 24.8302C7.42346 23.4233 3.80461 20.9262 3.84577 14.9506C3.88673 8.96558 8.45654 3.65904 15.0962 3.65904Z" fill="#FEFEFE"/>
</svg>
